<?xml version="1.0" standalone="no"?>
<!DOCTYPE svg PUBLIC "-//W3C//DTD SVG 1.1//EN" "http://www.w3.org/Graphics/SVG/1.1/DTD/svg11.dtd" >
<svg xmlns="http://www.w3.org/2000/svg">
<metadata>Generated by IcoMoon</metadata>
<defs>
<font id="icomoon" horiz-adv-x="1024">
<font-face units-per-em="1024" ascent="960" descent="-64" />
<missing-glyph horiz-adv-x="1024" />
<glyph unicode="&#x20;" horiz-adv-x="512" d="" />
<glyph unicode="&#xe900;" glyph-name="icons8-barbell-50" d="M593.92 945.664c-57.344-10.24-122.88-61.44-122.88-96.256 0-10.24 34.816-55.296 75.776-98.304l75.776-77.824-335.872-335.872-77.824 75.776c-43.008 40.96-88.064 75.776-98.304 75.776-40.96 0-86.016-71.68-98.304-153.6-12.288-71.68-8.192-90.112 36.864-133.12 51.2-45.056 51.2-49.152 18.432-86.016-63.488-69.632 43.008-176.128 112.64-112.64 36.864 32.768 40.96 32.768 86.016-18.432 43.008-45.056 61.44-49.152 133.12-36.864 81.92 12.288 153.6 57.344 153.6 98.304 0 10.24-34.816 55.296-75.776 98.304l-75.776 77.824 335.872 335.872 77.824-75.776c43.008-40.96 88.064-75.776 98.304-75.776 40.96 0 86.016 71.68 98.304 153.6 12.288 71.68 8.192 90.112-36.864 133.12-51.2 45.056-51.2 49.152-18.432 86.016 63.488 69.632-43.008 176.128-112.64 112.64-36.864-32.768-40.96-32.768-86.016 16.384-47.104 51.2-63.488 55.296-163.84 36.864z" />
<glyph unicode="&#xe901;" glyph-name="icons8-bench-press-50" d="M284.672 798.208c-63.488-51.2-63.488-167.936-2.048-233.472 24.576-26.624 45.056-67.584 45.056-94.208 0-40.96-2.048-43.008-32.768-14.336-36.864 36.864-77.824 40.96-131.072 12.288-30.72-16.384-38.912-43.008-36.864-143.36 2.048-106.496 6.144-122.88 38.912-122.88 28.672 0 38.912-14.336 38.912-51.2 0-28.672-8.192-51.2-20.48-51.2-10.24 0-20.48-8.192-20.48-20.48 0-10.24 18.432-20.48 38.912-20.48 30.72 0 43.008 16.384 49.152 77.824l8.192 75.776 2.048-75.776c4.096-63.488 12.288-77.824 45.056-77.824 22.528 0 40.96 10.24 40.96 20.48 0 12.288-8.192 20.48-20.48 20.48-10.24 0-20.48 22.528-20.48 51.2s10.24 51.2 20.48 51.2c12.288 0 20.48 8.192 20.48 18.432 0 12.288-43.008 24.576-96.256 28.672-55.296 4.096 26.624 6.144 178.176 6.144s223.232-2.048 159.744-6.144c-114.688-8.192-172.032-47.104-67.584-47.104 45.056 0 51.2-8.192 51.2-71.68 0-57.344 8.192-71.68 40.96-71.68s40.96 14.336 40.96 71.68c0 61.44 6.144 71.68 47.104 71.68 34.816 0 51.2-16.384 65.536-67.584 16.384-51.2 30.72-65.536 71.68-65.536 51.2 0 51.2 2.048 47.104 153.6-4.096 110.592-14.336 159.744-36.864 176.128-16.384 12.288-114.688 30.72-215.040 36.864-202.752 16.384-231.424 40.96-133.12 118.784 65.536 51.2 71.68 180.224 10.24 241.664-51.2 51.2-163.84 53.248-227.328 2.048z" />
<glyph unicode="&#xe902;" glyph-name="icons8-bench-press-50-2" d="M215.040 847.36c-34.816-32.768-51.2-71.68-51.2-118.784 0-75.776 65.536-178.176 114.688-178.176 22.528 0 28.672-30.72 28.672-131.072s8.192-133.12 32.768-143.36c18.432-6.144 131.072-12.288 253.952-12.288h221.184l14.336-112.64c10.24-94.208 20.48-112.64 53.248-112.64 36.864 0 40.96 12.288 34.816 167.936l-6.144 169.984-163.84 34.816c-90.112 18.432-202.752 34.816-249.856 34.816-77.824 2.048-88.064 8.192-88.064 49.152 0 26.624 22.528 69.632 51.2 96.256 73.728 69.632 71.68 204.8-2.048 264.192-75.776 59.392-182.272 55.296-243.712-8.192z" />
<glyph unicode="&#xe903;" glyph-name="icons8-biceps-50" d="M57.344 814.592l-63.488-61.44 12.288-198.656c12.288-237.568 53.248-364.544 149.504-462.848l71.68-73.728h206.848c245.76 0 311.296 28.672 387.072 174.080 26.624 51.2 65.536 98.304 83.968 104.448 69.632 22.528 118.784 110.592 118.784 217.088 0 83.968-10.24 110.592-59.392 161.792-51.2 51.2-75.776 59.392-165.888 59.392s-114.688-8.192-165.888-59.392c-32.768-32.768-59.392-79.872-59.392-102.4 0-36.864-12.288-43.008-79.872-43.008-61.44 0-90.112-12.288-120.832-51.2l-40.96-51.2-75.776 98.304c-73.728 94.208-73.728 96.256-26.624 102.4 114.688 18.432 153.6 126.976 71.68 204.8-69.632 65.536-167.936 59.392-243.712-18.432zM258.048 787.968c32.768-24.576 34.816-34.816 12.288-57.344-14.336-14.336-51.2-26.624-81.92-26.624-47.104 0-55.296-10.24-61.44-61.44-4.096-47.104 16.384-88.064 88.064-174.080 51.2-61.44 92.16-124.928 92.16-139.264 0-16.384 26.624-55.296 59.392-88.064 51.2-49.152 75.776-59.392 165.888-59.392 188.416 0 251.904 71.68 184.32 202.752-22.528 45.056-49.152 86.016-61.44 94.208-34.816 22.528-22.528 98.304 24.576 147.456 98.304 104.448 282.624 30.72 282.624-114.688 0-73.728-63.488-165.888-116.736-165.888-14.336 0-40.96-36.864-59.392-81.92s-61.44-104.448-94.208-133.12c-55.296-47.104-77.824-51.2-249.856-51.2-169.984 0-194.56 4.096-233.472 47.104-79.872 83.968-131.072 235.52-143.36 417.792-8.192 157.696-6.144 174.080 36.864 221.184 55.296 57.344 98.304 63.488 155.648 22.528z" />
<glyph unicode="&#xe904;" glyph-name="icons8-deadlift-50" d="M438.272 869.888c-6.144-16.384-8.192-51.2-4.096-77.824 4.096-36.864-6.144-51.2-53.248-67.584s-71.68-49.152-116.736-153.6c-57.344-139.264-112.64-182.272-124.928-98.304-4.096 32.768-20.48 47.104-55.296 45.056-59.392 0-90.112-77.824-69.632-174.080 8.192-49.152 22.528-59.392 69.632-59.392 45.056 0 59.392 10.24 59.392 38.912 0 32.768 14.336 36.864 108.544 34.816l108.544-2.048-16.384-98.304c-10.24-55.296-16.384-133.12-12.288-174.080 6.144-69.632 12.288-75.776 67.584-75.776 53.248 0 63.488 10.24 79.872 77.824 10.24 40.96 24.576 75.776 32.768 75.776s22.528-34.816 32.768-75.776c16.384-67.584 26.624-77.824 79.872-77.824 55.296 0 61.44 6.144 67.584 75.776 4.096 40.96-2.048 118.784-12.288 174.080l-16.384 98.304 108.544 2.048c94.208 2.048 108.544-2.048 108.544-34.816 0-28.672 14.336-38.912 59.392-38.912 47.104 0 61.44 10.24 69.632 59.392 20.48 96.256-10.24 174.080-69.632 174.080-34.816 2.048-51.2-12.288-55.296-45.056-12.288-83.968-67.584-40.96-124.928 98.304-45.056 104.448-69.632 137.216-116.736 153.6-51.2 16.384-59.392 30.72-59.392 92.16 0 65.536-6.144 71.68-67.584 77.824-43.008 4.096-69.632-4.096-77.824-24.576zM704.512 552.448c69.632-155.648 67.584-204.8-4.096-73.728-30.72 55.296-63.488 102.4-75.776 102.4-10.24 0-22.528-34.816-26.624-75.776-6.144-75.776-8.192-77.824-86.016-77.824s-79.872 2.048-86.016 77.824c-4.096 40.96-14.336 75.776-26.624 75.776-10.24 0-45.056-45.056-75.776-102.4-71.68-131.072-73.728-81.92-4.096 73.728l55.296 120.832h274.432l55.296-120.832z" />
<glyph unicode="&#xe905;" glyph-name="icons8-deadlift-50-2" d="M331.776 648.704c-16.384-16.384-24.576-92.16-24.576-204.8 0-165.888 4.096-180.224 40.96-180.224s40.96 14.336 40.96 122.88c0 67.584 8.192 122.88 20.48 122.88s20.48-36.864 20.48-81.92c0-79.872 2.048-81.92 71.68-81.92s71.68 2.048 71.68 81.92c0 45.056 10.24 81.92 20.48 81.92 12.288 0 20.48-55.296 20.48-122.88 0-108.544 4.096-122.88 40.96-122.88s40.96 14.336 40.96 180.224c0 112.64-8.192 188.416-24.576 204.8-32.768 32.768-307.2 32.768-339.968 0zM382.976 259.584c-22.528-22.528-43.008-86.016-49.152-151.552-12.288-108.544-10.24-110.592 40.96-110.592 43.008 0 57.344 12.288 67.584 55.296 30.72 137.216 51.2 210.944 59.392 210.944s28.672-73.728 59.392-208.896c10.24-45.056 24.576-57.344 67.584-57.344 51.2 0 53.248 2.048 40.96 110.592-14.336 141.312-65.536 196.608-172.032 194.56-49.152 0-92.16-16.384-114.688-43.008z" />
<glyph unicode="&#xe906;" glyph-name="icons8-dumbbell-50" d="M157.696 863.744c-8.192-6.144-14.336-43.008-14.336-81.92 0-53.248-8.192-67.584-38.912-67.584-71.68 0-90.112-53.248-90.112-266.24s18.432-266.24 90.112-266.24c26.624 0 38.912-18.432 43.008-63.488 8.192-79.872 61.44-120.832 114.688-88.064 26.624 18.432 36.864 57.344 40.96 180.224l6.144 155.648h405.504l6.144-155.648c4.096-122.88 14.336-161.792 43.008-180.224 51.2-32.768 104.448 8.192 112.64 88.064 4.096 45.056 16.384 63.488 43.008 63.488 71.68 0 90.112 53.248 90.112 266.24s-18.432 266.24-90.112 266.24c-30.72 0-38.912 14.336-38.912 71.68 0 81.92-30.72 104.448-112.64 83.968-49.152-12.288-51.2-18.432-51.2-176.128v-163.84h-409.6v161.792c0 129.024-6.144 163.84-32.768 174.080-43.008 16.384-100.352 16.384-116.736-2.048z" />
<glyph unicode="&#xe907;" glyph-name="icons8-exercise-50" d="M450.56 916.992c-18.432-30.72-18.432-57.344-2.048-92.16 20.48-45.056 16.384-47.104-71.68-61.44-75.776-10.24-102.4-26.624-133.12-77.824-79.872-131.072-14.336-233.472 79.872-124.928l47.104 55.296-14.336-57.344c-8.192-32.768-20.48-63.488-26.624-69.632-8.192-6.144-22.528-36.864-32.768-71.68-18.432-51.2-34.816-63.488-110.592-75.776-104.448-18.432-131.072-38.912-120.832-90.112 6.144-32.768 26.624-38.912 147.456-38.912 129.024 0 143.36 4.096 190.464 61.44l53.248 59.392 47.104-57.344c94.208-106.496 73.728-118.784-268.288-147.456-208.896-18.432-239.616-32.768-231.424-116.736l6.144-65.536 473.088-6.144c362.496-4.096 479.232 2.048 493.568 20.48 12.288 14.336 26.624 167.936 34.816 339.968 14.336 344.064 16.384 335.872-116.736 280.576-92.16-36.864-116.736-38.912-67.584-4.096 20.48 14.336 32.768 45.056 28.672 67.584-6.144 28.672-24.576 38.912-79.872 38.912-38.912 0-96.256 16.384-129.024 36.864-55.296 36.864-55.296 38.912-20.48 77.824 28.672 30.72 32.768 51.2 16.384 96.256s-32.768 57.344-94.208 61.44c-59.392 6.144-79.872-2.048-98.304-38.912zM622.592 663.040c53.248-36.864 92.16-47.104 131.072-40.96 53.248 12.288 53.248 10.24-6.144-16.384-53.248-24.576-65.536-24.576-96.256 2.048-53.248 45.056-92.16 16.384-106.496-83.968-12.288-79.872-6.144-104.448 49.152-190.464 59.392-94.208 79.872-172.032 45.056-172.032-8.192 0-26.624 30.72-40.96 69.632-14.336 36.864-43.008 83.968-65.536 104.448-28.672 24.576-34.816 51.2-26.624 94.208 6.144 36.864 2.048 59.392-12.288 59.392-12.288 0-22.528-12.288-22.528-28.672 0-14.336-34.816-65.536-75.776-110.592-65.536-69.632-92.16-83.968-174.080-90.112-55.296-4.096-98.304 0-98.304 8.192 0 10.24 28.672 16.384 63.488 16.384 86.016 0 131.072 28.672 161.792 102.4 18.432 47.104 30.72 57.344 43.008 36.864 14.336-22.528 20.48-22.528 43.008 0s20.48 32.768-6.144 51.2c-24.576 18.432-28.672 38.912-14.336 92.16 10.24 34.816 26.624 65.536 36.864 65.536 12.288 0 20.48 10.24 20.48 20.48 0 12.288-30.72 20.48-69.632 20.48-53.248 0-81.92-14.336-114.688-55.296l-43.008-57.344 30.72 65.536c36.864 75.776 55.296 83.968 178.176 86.016 69.632 2.048 114.688-12.288 169.984-49.152zM933.888 44.544c-4.096-4.096-202.752-8.192-440.32-6.144-282.624 0-432.128-6.144-432.128-20.48 0-12.288 155.648-22.528 436.224-24.576l434.176-6.144-428.032-4.096c-417.792-6.144-501.76 4.096-450.56 55.296 14.336 14.336 722.944 102.4 829.44 102.4 8.192 0 22.528 61.44 32.768 139.264l16.384 137.216 6.144-182.272c4.096-100.352 2.048-184.32-4.096-190.464z" />
<glyph unicode="&#xe908;" glyph-name="icons8-exercise-50-2" d="M409.6 777.728c-53.248-8.192-73.728-24.576-77.824-57.344-6.144-43.008 0-47.104 96.256-47.104 57.344 0 104.448-8.192 104.448-16.384 0-10.24-26.624-36.864-61.44-61.44-73.728-55.296-79.872-124.928-18.432-180.224l43.008-38.912-77.824-22.528c-94.208-26.624-124.928-104.448-49.152-124.928 30.72-8.192 38.912-20.48 28.672-45.056-30.72-73.728-20.48-114.688 32.768-114.688 40.96 0 61.44 20.48 102.4 96.256 26.624 53.248 67.584 100.352 86.016 104.448 59.392 16.384 67.584 73.728 20.48 137.216-34.816 45.056-36.864 59.392-14.336 67.584 14.336 6.144 38.912-2.048 53.248-18.432 16.384-20.48 55.296-28.672 118.784-24.576 79.872 6.144 96.256 14.336 100.352 51.2 6.144 36.864-4.096 45.056-59.392 51.2-53.248 4.096-69.632 18.432-81.92 61.44-14.336 51.2-10.24 55.296 24.576 34.816 57.344-28.672 118.784-4.096 133.12 55.296 16.384 65.536-22.528 110.592-96.256 110.592-51.2 0-61.44-10.24-73.728-63.488-6.144-34.816-18.432-53.248-24.576-43.008-18.432 26.624-180.224 106.496-210.944 104.448-14.336-2.048-59.392-8.192-98.304-16.384z" />
<glyph unicode="&#xe909;" glyph-name="icons8-exercise-50-3" d="M311.296 876.032c-34.816-12.288-45.056-30.72-40.96-63.488 6.144-43.008 18.432-47.104 139.264-53.248 73.728-4.096 141.312-14.336 149.504-22.528 10.24-10.24-16.384-38.912-57.344-63.488s-88.064-67.584-104.448-94.208c-28.672-43.008-28.672-53.248-2.048-110.592l30.72-61.44h-212.992c-135.168 0-212.992-8.192-212.992-22.528 0-12.288 79.872-18.432 227.328-16.384 188.416 2.048 231.424-2.048 247.808-28.672 14.336-26.624-2.048-34.816-94.208-45.056-65.536-8.192-116.736-26.624-122.88-43.008-18.432-49.152 10.24-92.16 71.68-104.448l59.392-10.24-53.248-63.488c-61.44-73.728-57.344-124.928 12.288-133.12 36.864-4.096 81.92 22.528 165.888 96.256 63.488 55.296 139.264 108.544 167.936 116.736 73.728 18.432 71.68 81.92-6.144 206.848-59.392 92.16-61.44 100.352-26.624 124.928 30.72 22.528 38.912 20.48 55.296-16.384 16.384-38.912 34.816-43.008 163.84-36.864 139.264 6.144 145.408 8.192 145.408 57.344 0 43.008-10.24 51.2-71.68 57.344-75.776 8.192-102.4 30.72-102.4 92.16 0 26.624 16.384 34.816 67.584 34.816 83.968 0 116.736 30.72 116.736 112.64 0 79.872-32.768 112.64-112.64 112.64-77.824 0-112.64-32.768-112.64-100.352 0-30.72-8.192-43.008-16.384-30.72s-51.2 47.104-96.256 75.776c-65.536 45.056-104.448 55.296-204.8 53.248-67.584 0-143.36-8.192-169.984-20.48zM647.168 787.968c69.632-47.104 143.36-131.072 129.024-143.36-4.096-4.096-61.44-40.96-124.928-81.92-65.536-40.96-118.784-79.872-118.784-86.016 0-8.192 32.768-65.536 71.68-131.072s71.68-122.88 71.68-131.072c0-6.144-79.872-12.288-178.176-10.24-188.416 0-188.416 34.816 0 36.864 53.248 2.048 96.256 12.288 96.256 22.528 0 12.288-32.768 69.632-71.68 129.024-38.912 57.344-71.68 116.736-71.68 131.072s47.104 59.392 102.4 102.4c57.344 40.96 102.4 88.064 102.4 100.352 0 45.056-67.584 79.872-182.272 92.16l-114.688 12.288 108.544 4.096c83.968 2.048 124.928-8.192 180.224-47.104z" />
<glyph unicode="&#xe90a;" glyph-name="icons8-fitness-50" d="M401.408 763.392c-45.056-43.008-40.96-102.4 8.192-137.216 36.864-26.624 38.912-30.72 10.24-43.008-45.056-16.384-73.728 2.048-59.392 36.864 6.144 18.432-10.24 30.72-47.104 38.912-65.536 12.288-110.592-16.384-104.448-65.536 4.096-20.48-6.144-30.72-26.624-26.624-53.248 8.192-83.968-45.056-61.44-102.4 14.336-38.912 34.816-51.2 77.824-51.2 30.72 2.048 77.824-10.24 104.448-24.576 24.576-12.288 55.296-18.432 65.536-12.288 12.288 6.144 20.48 4.096 20.48-8.192 0-10.24-10.24-26.624-20.48-32.768-12.288-8.192-40.96-51.2-63.488-98.304-24.576-47.104-53.248-92.16-63.488-98.304-14.336-8.192-12.288-18.432 2.048-26.624 10.24-8.192 43.008 20.48 71.68 63.488s67.584 98.304 88.064 124.928l38.912 47.104 38.912-40.96c20.48-24.576 49.152-43.008 65.536-43.008 18.432 0 26.624-26.624 26.624-81.92 0-67.584 6.144-81.92 40.96-81.92s40.96 14.336 40.96 79.872c0 61.44 8.192 81.92 40.96 90.112s40.96 0 40.96-45.056c0-83.968 49.152-141.312 96.256-112.64 28.672 16.384 38.912 53.248 43.008 149.504 6.144 147.456-14.336 186.368-102.4 186.368-38.912 0-92.16 26.624-149.504 73.728-81.92 65.536-88.064 77.824-77.824 143.36 18.432 114.688-69.632 174.080-145.408 98.304z" />
<glyph unicode="&#xe90b;" glyph-name="icons8-fitness-50-2" d="M475.136 812.544c-30.72-30.72-30.72-104.448 0-135.168 18.432-18.432 18.432-24.576 0-24.576-12.288 0-55.296-43.008-94.208-96.256-55.296-75.776-92.16-104.448-169.984-129.024-94.208-28.672-98.304-34.816-96.256-102.4 0-38.912 8.192-114.688 16.384-167.936 12.288-86.016 20.48-98.304 65.536-98.304 40.96 0 49.152 10.24 49.152 67.584v65.536l276.48-12.288 69.632 106.496c65.536 102.4 65.536 108.544 30.72 135.168-53.248 38.912-57.344 34.816-118.784-55.296-51.2-77.824-59.392-81.92-153.6-81.92-79.872 0-104.448-8.192-110.592-36.864-8.192-26.624-10.24-22.528-12.288 12.288-2.048 40.96 6.144 45.056 100.352 45.056 96.256 0 102.4 4.096 163.84 92.16l63.488 92.16 61.44-30.72c53.248-28.672 65.536-28.672 104.448-2.048s45.056 26.624 75.776-10.24c30.72-36.864 40.96-38.912 90.112-16.384 30.72 14.336 55.296 32.768 55.296 40.96 0 38.912-26.624 79.872-53.248 79.872-36.864 0-90.112 79.872-75.776 114.688 6.144 16.384 0 43.008-14.336 59.392-22.528 26.624-32.768 26.624-83.968-4.096-67.584-40.96-71.68-59.392-28.672-108.544 53.248-59.392-12.288-63.488-104.448-8.192-59.392 36.864-69.632 49.152-36.864 49.152 53.248 0 90.112 36.864 90.112 92.16s-36.864 92.16-92.16 92.16c-24.576 0-53.248-10.24-67.584-24.576z" />
<glyph unicode="&#xe90c;" glyph-name="icons8-fitness-50-3" d="M360.448 531.968c-67.584-69.632-126.976-108.544-190.464-126.976-51.2-12.288-96.256-36.864-102.4-53.248s4.096-88.064 24.576-161.792c26.624-102.4 43.008-131.072 69.632-126.976 26.624 6.144 30.72 30.72 26.624 124.928l-4.096 116.736h104.448c86.016 0 118.784 10.24 186.368 63.488 77.824 63.488 83.968 63.488 161.792 38.912 79.872-26.624 81.92-26.624 151.552 40.96s96.256 143.36 49.152 143.36c-12.288 0-49.152-18.432-81.92-40.96l-57.344-43.008-86.016 63.488c-47.104 32.768-100.352 61.44-118.784 61.44s-77.824-45.056-133.12-100.352z" />
<glyph unicode="&#xe90d;" glyph-name="icons8-fitness-50-4" d="M454.656 865.792c-49.152-34.816-59.392-108.544-22.528-176.128 20.48-36.864 8.192-55.296-86.016-151.552-100.352-102.4-116.736-110.592-204.8-110.592-126.976 0-151.552-30.72-133.12-169.984 6.144-57.344 22.528-141.312 34.816-184.32 18.432-71.68 26.624-77.824 86.016-71.68 63.488 6.144 65.536 8.192 61.44 102.4l-2.048 98.304h137.216c135.168 0 139.264 2.048 223.232 88.064 69.632 71.68 98.304 88.064 143.36 79.872 36.864-4.096 67.584 4.096 86.016 24.576 24.576 30.72 28.672 30.72 65.536-2.048 90.112-79.872 233.472 65.536 151.552 155.648-20.48 22.528-57.344 43.008-81.92 47.104s-40.96 20.48-40.96 40.96c2.048 18.432-18.432 55.296-45.056 79.872-40.96 36.864-55.296 40.96-108.544 22.528-61.44-22.528-63.488-20.48-63.488 34.816 0 106.496-108.544 157.696-200.704 92.16zM643.072 511.488c32.768-34.816 69.632-57.344 79.872-49.152 12.288 6.144 14.336 2.048 6.144-10.24-10.24-18.432-30.72-16.384-73.728 6.144-88.064 45.056-122.88 38.912-208.896-45.056-71.68-69.632-90.112-75.776-212.992-83.968l-135.168-8.192 12.288-86.016c6.144-45.056 18.432-104.448 24.576-131.072 6.144-24.576 4.096-45.056-6.144-45.056-20.48 0-67.584 176.128-67.584 256 0 53.248 34.816 71.68 137.216 71.68 61.44 0 94.208 18.432 192.512 112.64 133.12 126.976 143.36 126.976 251.904 12.288z" />
<glyph unicode="&#xe90e;" glyph-name="icons8-hamstrings-50" d="M194.56 863.744c-8.192-32.768-20.48-96.256-32.768-143.36-22.528-100.352-22.528-264.192-4.096-544.768l12.288-198.656h260.096v77.824c0 40.96 14.336 126.976 30.72 188.416s30.72 165.888 30.72 231.424c0 63.488 10.24 116.736 20.48 116.736 12.288 0 20.48-53.248 20.48-116.736 0-65.536 14.336-169.984 30.72-231.424s30.72-147.456 30.72-188.416v-77.824h260.096l12.288 198.656c18.432 280.576 18.432 444.416-4.096 544.768-12.288 47.104-24.576 110.592-32.768 143.36l-10.24 55.296h-614.4l-10.24-55.296z" />
<glyph unicode="&#xe90f;" glyph-name="icons8-healthy-eating-50" d="M348.16 878.080c0-12.288 18.432-43.008 43.008-67.584l40.96-45.056-124.928-10.24c-110.592-8.192-133.12-18.432-186.368-77.824-53.248-57.344-59.392-81.92-59.392-194.56 0-149.504 45.056-262.144 145.408-360.448 55.296-57.344 71.68-63.488 75.776-36.864 4.096 20.48-18.432 65.536-49.152 102.4-77.824 92.16-110.592 180.224-110.592 296.96 0 135.168 63.488 208.896 184.32 208.896 45.056 0 100.352-12.288 122.88-24.576 32.768-20.48 49.152-20.48 81.92 0 22.528 12.288 77.824 24.576 122.88 24.576 65.536 0 96.256-12.288 135.168-55.296 47.104-51.2 53.248-69.632 45.056-186.368-6.144-108.544-2.048-126.976 24.576-122.88 22.528 6.144 32.768 38.912 36.864 145.408 6.144 135.168 4.096 141.312-65.536 210.944-36.864 36.864-83.968 69.632-100.352 69.632-24.576 0-28.672 16.384-20.48 71.68 12.288 69.632 10.24 71.68-59.392 71.68-45.056 0-86.016-14.336-108.544-40.96l-36.864-40.96-45.056 40.96c-47.104 45.056-92.16 53.248-92.16 20.48zM913.408 407.040c-16.384-108.544-57.344-122.88-352.256-122.88h-233.472v-286.72h282.624c358.4 0 352.256-4.096 352.256 272.384 0 204.8-26.624 278.528-49.152 137.216zM911.36 148.992c-16.384-94.208-63.488-110.592-329.728-110.592h-212.992v102.4c0 88.064 6.144 102.4 40.96 102.4 30.72 0 40.96-14.336 40.96-51.2 0-28.672 10.24-51.2 20.48-51.2 12.288 0 20.48 22.528 20.48 51.2 0 36.864 10.24 51.2 40.96 51.2 32.768 0 40.96-14.336 40.96-71.68 0-38.912 10.24-71.68 20.48-71.68 12.288 0 20.48 32.768 20.48 71.68 0 57.344 8.192 71.68 40.96 71.68s40.96-14.336 40.96-61.44c0-32.768 10.24-61.44 20.48-61.44 12.288 0 20.48 28.672 20.48 61.44 0 47.104 8.192 61.44 40.96 61.44s40.96-14.336 40.96-71.68c0-38.912 10.24-71.68 20.48-71.68 12.288 0 20.48 30.72 20.48 69.632s12.288 73.728 26.624 79.872c34.816 12.288 40.96-16.384 24.576-100.352z" />
<glyph unicode="&#xe910;" glyph-name="icons8-jump-50" d="M143.36 726.528c0-43.008 18.432-57.344 112.64-92.16 63.488-24.576 122.88-43.008 133.12-43.008 12.288 0 20.48-28.672 20.48-65.536 0-49.152-24.576-90.112-112.64-182.272-73.728-77.824-108.544-129.024-100.352-149.504 22.528-61.44 98.304-34.816 206.848 73.728l108.544 106.496 108.544-106.496c118.784-116.736 198.656-141.312 198.656-59.392 0 28.672-38.912 83.968-102.4 147.456-81.92 79.872-102.4 114.688-102.4 167.936 0 36.864 8.192 67.584 20.48 67.584 10.24 0 69.632 18.432 133.12 43.008 94.208 34.816 112.64 49.152 112.64 92.16 0 63.488-59.392 65.536-208.896 8.192-135.168-51.2-184.32-51.2-319.488 0-149.504 57.344-208.896 55.296-208.896-8.192z" />
<glyph unicode="&#xe911;" glyph-name="icons8-jump-rope-50" d="M167.936 925.184c-153.6-75.776-217.088-299.008-122.88-434.176 73.728-110.592 141.312-149.504 256-151.552 169.984-2.048 301.056 106.496 317.44 262.144 4.096 43.008-4.096 61.44-28.672 67.584-26.624 4.096-36.864-6.144-36.864-34.816 0-129.024-133.12-239.616-270.336-221.184-100.352 14.336-174.080 77.824-204.8 180.224-18.432 65.536-16.384 88.064 18.432 155.648 59.392 116.736 141.312 149.504 380.928 149.504 327.68 0 403.456-61.44 419.84-327.68 6.144-124.928 2.048-159.744-24.576-182.272s-32.768-67.584-32.768-215.040c0-118.784 8.192-196.608 24.576-212.992 30.72-30.72 104.448-30.72 135.168 0 36.864 36.864 32.768 372.736-4.096 411.648-18.432 18.432-30.72 90.112-34.816 210.944-8.192 206.848-47.104 284.672-169.984 344.064-98.304 47.104-526.336 45.056-622.592-2.048zM184.32 777.728c-124.928-122.88-47.104-307.2 129.024-309.248 98.304 0 178.176 71.68 178.176 163.84 0 118.784 114.688 174.080 163.84 79.872 32.768-59.392 24.576-296.96-10.24-325.632-38.912-32.768-45.056-387.072-6.144-425.984 30.72-30.72 104.448-30.72 135.168 0 38.912 38.912 32.768 403.456-6.144 417.792-24.576 10.24-30.72 51.2-30.72 186.368 0 155.648-4.096 176.128-51.2 221.184-26.624 28.672-73.728 51.2-102.4 51.2-73.728 0-153.6-86.016-153.6-163.84 0-69.632-61.44-143.36-118.784-143.36s-110.592 69.632-102.4 137.216c4.096 43.008 24.576 65.536 73.728 86.016 73.728 32.768 77.824 69.632 8.192 79.872-28.672 4.096-67.584-16.384-106.496-55.296z" />
<glyph unicode="&#xe912;" glyph-name="icons8-leg-50" d="M425.984 914.944c-65.536-100.352-118.784-221.184-118.784-270.336 0-67.584 47.104-241.664 100.352-376.832 65.536-163.84 59.392-196.608-45.056-237.568-47.104-18.432-98.304-32.768-112.64-32.768s-24.576-14.336-24.576-30.72c0-24.576 36.864-30.72 212.992-30.72 235.52 0 262.144 14.336 208.896 118.784-45.056 90.112-57.344 204.8-32.768 321.536 18.432 88.064 16.384 122.88-8.192 182.272-30.72 73.728-30.72 73.728 28.672 104.448 118.784 61.44 266.24 221.184 266.24 286.72 0 6.144-100.352 10.24-223.232 10.24-208.896 0-225.28-2.048-251.904-45.056z" />
<glyph unicode="&#xe913;" glyph-name="icons8-leg-50-2" d="M425.984 914.944c-65.536-100.352-118.784-221.184-118.784-270.336 0-55.296 34.816-190.464 98.304-391.168 22.528-67.584 36.864-133.12 30.72-145.408-4.096-12.288-51.2-34.816-104.448-51.2-71.68-22.528-98.304-40.96-102.4-75.776-6.144-45.056-4.096-47.104 215.040-40.96 256 6.144 258.048 10.24 200.704 194.56-26.624 81.92-32.768 143.36-22.528 231.424 10.24 86.016 6.144 141.312-16.384 192.512l-30.72 71.68 90.112 51.2c137.216 81.92 290.816 278.528 215.040 278.528-10.24 0-67.584-49.152-126.976-106.496-59.392-59.392-141.312-133.12-180.224-161.792-71.68-53.248-71.68-55.296-43.008-122.88 18.432-43.008 26.624-124.928 24.576-215.040-2.048-88.064 8.192-178.176 26.624-235.52 18.432-49.152 32.768-96.256 32.768-104.448 0-10.24-53.248-16.384-116.736-14.336-92.16 0-108.544 4.096-71.68 18.432 86.016 34.816 94.208 100.352 38.912 268.288-92.16 278.528-102.4 352.256-65.536 440.32 16.384 43.008 55.296 106.496 81.92 143.36 61.44 79.872 63.488 90.112 12.288 90.112-20.48 0-51.2-20.48-67.584-45.056z" />
<glyph unicode="&#xe914;" glyph-name="icons8-mommy-fitness-50" d="M280.576 861.696c-18.432-20.48-34.816-45.056-34.816-53.248 0-20.48-55.296-73.728-77.824-73.728-45.056 0-86.016-75.776-73.728-137.216 10.24-49.152 26.624-65.536 75.776-75.776 40.96-8.192 73.728-2.048 98.304 20.48 22.528 20.48 38.912 24.576 49.152 10.24 6.144-12.288 45.056-22.528 86.016-22.528 71.68 0 71.68-2.048 59.392-65.536-8.192-36.864-20.48-110.592-26.624-163.84-10.24-90.112-8.192-98.304 30.72-98.304 36.864 0 43.008-14.336 49.152-96.256l6.144-98.304h184.32l6.144 98.304c6.144 79.872 12.288 96.256 47.104 96.256 28.672 0 38.912 14.336 38.912 57.344 0 38.912 22.528 79.872 71.68 126.976 75.776 73.728 98.304 178.176 45.056 223.232-16.384 12.288-124.928 26.624-241.664 34.816-268.288 14.336-280.576 18.432-235.52 67.584 36.864 40.96 24.576 165.888-16.384 165.888-12.288 0-40.96 6.144-63.488 12.288-26.624 6.144-55.296-4.096-77.824-28.672z" />
<glyph unicode="&#xe915;" glyph-name="icons8-neck-50" d="M317.44 898.56c-6.144-10.24-30.72-20.48-53.248-20.48-20.48 0-71.68-30.72-108.544-65.536-67.584-65.536-69.632-73.728-83.968-264.192l-12.288-194.56 53.248-24.576c106.496-49.152 139.264-20.48 118.784 106.496-6.144 43.008-2.048 73.728 8.192 73.728 12.288 0 26.624-102.4 34.816-229.376 16.384-286.72 28.672-303.104 237.568-303.104s221.184 16.384 237.568 303.104c8.192 126.976 22.528 229.376 34.816 229.376 10.24 0 14.336-30.72 8.192-73.728-20.48-126.976 12.288-155.648 118.784-106.496l53.248 24.576-12.288 194.56c-14.336 190.464-16.384 198.656-83.968 264.192-36.864 34.816-88.064 65.536-108.544 65.536-22.528 0-47.104 10.24-53.248 20.48-16.384 26.624-112.64 26.624-112.64 0 0-10.24 18.432-28.672 40.96-40.96 94.208-51.2 16.384-139.264-122.88-139.264s-217.088 88.064-122.88 139.264c22.528 12.288 40.96 30.72 40.96 40.96 0 26.624-96.256 26.624-112.64 0z" />
<glyph unicode="&#xe916;" glyph-name="icons8-neck-50-2" d="M270.336 880.128c-153.6-61.44-182.272-108.544-196.608-325.632-12.288-153.6-8.192-190.464 12.288-184.32 30.72 10.24 51.2 92.16 55.296 225.28 2.048 124.928 16.384 155.648 86.016 190.464 69.632 36.864 79.872 38.912 79.872 4.096 0-14.336 18.432-47.104 40.96-71.68 61.44-65.536 266.24-65.536 327.68 0 22.528 24.576 40.96 57.344 40.96 71.68 0 34.816 10.24 32.768 79.872-4.096 69.632-34.816 83.968-65.536 86.016-190.464 4.096-133.12 24.576-215.040 55.296-225.28 40.96-12.288 10.24 362.496-34.816 413.696-81.92 96.256-350.208 165.888-350.208 92.16 0-12.288 12.288-18.432 26.624-12.288 16.384 6.144 40.96 2.048 57.344-8.192 22.528-14.336 22.528-18.432 2.048-18.432-18.432 0-22.528-14.336-14.336-38.912 6.144-22.528 2.048-45.056-10.24-53.248-10.24-6.144-20.48-4.096-20.48 4.096 0 10.24-36.864 16.384-81.92 16.384s-81.92-6.144-81.92-16.384c0-8.192-10.24-10.24-20.48-4.096-12.288 8.192-16.384 30.72-10.24 53.248 8.192 24.576 4.096 38.912-14.336 38.912-20.48 0-20.48 4.096 2.048 18.432 16.384 10.24 40.96 14.336 57.344 8.192 14.336-6.144 26.624-2.048 26.624 10.24 0 22.528-51.2 47.104-88.064 43.008-14.336-2.048-63.488-18.432-112.64-36.864z" />
<glyph unicode="&#xe917;" glyph-name="icons8-postnatal-yoga-50" d="M335.872 615.936c-12.288-8.192-43.008-51.2-65.536-98.304-22.528-45.056-79.872-106.496-126.976-139.264-69.632-45.056-83.968-65.536-77.824-110.592 8.192-81.92 81.92-81.92 206.848-4.096 57.344 34.816 92.16 51.2 77.824 32.768-14.336-16.384-67.584-55.296-116.736-83.968-86.016-51.2-92.16-59.392-86.016-129.024l6.144-75.776h716.8l6.144 75.776c4.096 57.344-2.048 79.872-34.816 96.256-53.248 28.672-73.728-2.048-38.912-59.392 40.96-65.536-8.192-81.92-219.136-77.824-147.456 4.096-184.32 12.288-184.32 36.864 0 22.528 30.72 32.768 110.592 40.96 147.456 14.336 167.936 61.44 24.576 61.44s-206.848-28.672-206.848-92.16c0-51.2-26.624-63.488-90.112-38.912-57.344 22.528-34.816 65.536 69.632 129.024l102.4 63.488v112.64c0 86.016-8.192 112.64-30.72 112.64-16.384 0-34.816-22.528-43.008-51.2-10.24-40.96-155.648-153.6-200.704-153.6-34.816 0-4.096 36.864 61.44 71.68 47.104 24.576 90.112 73.728 122.88 135.168 55.296 112.64 106.496 131.072 284.672 110.592 71.68-10.24 112.64-8.192 112.64 6.144 0 10.24-14.336 26.624-32.768 32.768-45.056 16.384-321.536 14.336-348.16-4.096zM557.056 441.856c-83.968-83.968-106.496-120.832-106.496-174.080 0-45.056 10.24-65.536 30.72-65.536 18.432 0 30.72 18.432 30.72 47.104 0 55.296 90.112 151.552 112.64 118.784 20.48-34.816 145.408-26.624 182.272 10.24 24.576 22.528 32.768 24.576 32.768 6.144 0-14.336-34.816-61.44-75.776-104.448-63.488-65.536-71.68-81.92-47.104-98.304 22.528-14.336 51.2 0 106.496 55.296 43.008 43.008 77.824 65.536 77.824 53.248s-14.336-26.624-30.72-34.816c-53.248-18.432-32.768-55.296 26.624-49.152 47.104 6.144 55.296 16.384 55.296 67.584 0 38.912-10.24 59.392-24.576 55.296-18.432-2.048-26.624 22.528-26.624 73.728 0 102.4-49.152 147.456-155.648 147.456-71.68 0-94.208-14.336-188.416-108.544z" />
<glyph unicode="&#xe918;" glyph-name="icons8-posture-50" d="M444.416 884.224c-8.192-20.48-32.768-71.68-59.392-114.688-45.056-75.776-47.104-90.112-32.768-358.4 8.192-153.6 20.48-315.392 26.624-356.352l14.336-77.824h364.544v88.064c-2.048 47.104-14.336 108.544-30.72 137.216-22.528 40.96-26.624 106.496-18.432 307.2 10.24 221.184 6.144 266.24-26.624 327.68-32.768 63.488-47.104 71.68-131.072 77.824-75.776 4.096-98.304 0-106.496-30.72z" />
<glyph unicode="&#xe919;" glyph-name="icons8-posture-50-2" d="M342.016 759.296c-43.008-147.456-47.104-481.28-6.144-559.104 26.624-51.2 24.576-53.248-12.288-43.008-32.768 8.192-38.912 2.048-32.768-28.672 4.096-22.528 22.528-36.864 43.008-36.864 20.48 2.048 34.816-10.24 34.816-34.816s14.336-38.912 40.96-38.912c34.816 0 40.96 14.336 40.96 79.872 0 43.008-14.336 106.496-30.72 137.216-38.912 75.776-38.912 358.4 0 468.992 40.96 112.64 38.912 174.080-6.144 174.080-26.624 0-45.056-32.768-71.68-118.784zM573.44 849.408c0-14.336 14.336-63.488 32.768-106.496 28.672-67.584 30.72-102.4 10.24-245.76-12.288-92.16-18.432-182.272-10.24-200.704 6.144-18.432 2.048-32.768-10.24-32.768s-22.528-20.48-22.528-43.008c0-34.816 10.24-40.96 43.008-32.768 40.96 10.24 43.008 6.144 30.72-79.872-10.24-88.064-10.24-92.16 34.816-86.016 40.96 6.144 45.056 16.384 45.056 135.168 0 69.632 2.048 118.784 6.144 106.496 10.24-30.72 59.392-24.576 73.728 10.24 12.288 36.864-34.816 63.488-71.68 40.96-40.96-26.624-53.248 28.672-34.816 149.504 34.816 202.752-12.288 413.696-90.112 413.696-20.48 0-36.864-12.288-36.864-28.672z" />
<glyph unicode="&#xe91a;" glyph-name="icons8-prelum-50" d="M0 916.992c0-51.2 32.768-116.736 88.064-178.176 38.912-40.96 43.008-71.68 45.056-286.72 0-131.072-4.096-290.816-10.24-352.256-8.192-90.112-4.096-112.64 20.48-112.64 40.96 0 86.016 372.736 65.536 548.864l-16.384 126.976 104.448-6.144c114.688-8.192 202.752 34.816 161.792 77.824-18.432 18.432-34.816 18.432-65.536 2.048-106.496-57.344-253.952 12.288-307.2 141.312-36.864 88.064-86.016 108.544-86.016 38.912zM940.032 880.128c-55.296-131.072-176.128-182.272-329.728-137.216-45.056 12.288-57.344 10.24-57.344-16.384 0-49.152 77.824-79.872 184.32-69.632l94.208 10.24-16.384-124.928c-12.288-77.824-10.24-192.512 6.144-307.2 18.432-145.408 16.384-184.32-4.096-196.608-45.056-28.672-299.008-45.056-448.512-30.72-120.832 12.288-143.36 10.24-143.36-16.384 0-22.528 28.672-36.864 96.256-47.104 120.832-18.432 468.992 2.048 544.768 30.72 49.152 18.432 55.296 28.672 40.96 77.824-8.192 32.768-16.384 188.416-16.384 348.16 0 266.24 4.096 292.864 43.008 337.92 57.344 61.44 90.112 126.976 90.112 178.176 0 69.632-49.152 49.152-83.968-36.864zM393.216 529.92c-22.528-28.672-38.912-90.112-45.056-190.464-10.24-139.264-8.192-149.504 45.056-204.8 73.728-71.68 163.84-73.728 231.424-4.096 45.056 43.008 51.2 67.584 51.2 204.8 0 126.976-8.192 161.792-40.96 194.56-55.296 55.296-192.512 55.296-241.664 0z" />
<glyph unicode="&#xe91b;" glyph-name="icons8-prelum-50-2" d="M329.728 423.424c0-36.864 12.288-126.976 26.624-200.704l24.576-133.12h264.192l24.576 143.36c12.288 79.872 24.576 167.936 24.576 200.704l2.048 55.296h-368.64l2.048-65.536z" />
<glyph unicode="&#xe91c;" glyph-name="icons8-prelum-50-3" d="M245.76 919.040c-110.592-43.008-204.8-129.024-206.848-190.464 0-24.576-4.096-67.584-8.192-96.256s-14.336-102.4-22.528-165.888l-12.288-116.736 77.824-53.248c43.008-28.672 90.112-53.248 104.448-53.248 16.384 0 22.528-18.432 14.336-59.392-14.336-67.584 32.768-169.984 98.304-215.040 63.488-45.056 378.88-45.056 442.368 0 65.536 45.056 112.64 147.456 98.304 215.040-8.192 40.96-2.048 59.392 14.336 59.392 14.336 0 61.44 24.576 104.448 53.248l77.824 53.248-12.288 116.736c-8.192 63.488-18.432 137.216-22.528 165.888s-8.192 71.68-8.192 96.256c-2.048 65.536-104.448 155.648-221.184 196.608-135.168 45.056-393.216 43.008-518.144-6.144zM667.648 847.36c20.48-16.384 55.296-30.72 75.776-30.72s65.536-28.672 100.352-61.44c49.152-51.2 59.392-75.776 53.248-126.976-6.144-36.864 2.048-98.304 18.432-137.216 28.672-65.536 26.624-73.728-6.144-98.304-57.344-43.008-86.016-30.72-102.4 40.96-14.336 65.536-14.336 65.536-51.2-57.344-22.528-67.584-32.768-149.504-26.624-184.32 8.192-51.2 0-71.68-55.296-122.88-36.864-34.816-55.296-45.056-40.96-26.624s24.576 55.296 20.48 81.92c-2.048 26.624 2.048 63.488 12.288 81.92 8.192 20.48 10.24 51.2 2.048 67.584-6.144 16.384-2.048 30.72 8.192 30.72 12.288 0 20.48 22.528 20.48 51.2 0 51.2-2.048 51.2-184.32 51.2s-184.32 0-184.32-51.2c0-28.672 8.192-51.2 20.48-51.2 10.24 0 14.336-14.336 8.192-30.72-8.192-16.384-6.144-47.104 2.048-65.536 10.24-20.48 14.336-57.344 12.288-83.968-4.096-26.624 6.144-63.488 20.48-81.92s-4.096-8.192-40.96 26.624c-55.296 51.2-63.488 71.68-55.296 122.88 6.144 34.816-4.096 116.736-26.624 184.32-36.864 122.88-36.864 122.88-51.2 57.344-16.384-71.68-45.056-83.968-102.4-40.96-32.768 24.576-34.816 32.768-6.144 98.304 16.384 38.912 24.576 98.304 20.48 133.12-10.24 71.68 63.488 176.128 129.024 182.272 20.48 2.048 67.584 18.432 100.352 36.864 77.824 40.96 256 45.056 309.248 4.096z" />
<glyph unicode="&#xe91d;" glyph-name="icons8-pronation-of-foot-50" d="M337.92 636.416c0-278.528 0-280.576-57.344-350.208-32.768-36.864-65.536-90.112-75.776-116.736s-32.768-49.152-51.2-49.152c-36.864 0-40.96-43.008-6.144-77.824 18.432-18.432 10.24-24.576-40.96-24.576-45.056 0-65.536-10.24-65.536-30.72 0-26.624 65.536-30.72 471.040-30.72s471.040 4.096 471.040 30.72c0 16.384-14.336 30.72-30.72 30.72-22.528 0-30.72 22.528-30.72 77.824 0 40.96-18.432 102.4-40.96 137.216-22.528 32.768-45.056 102.4-53.248 153.6s-32.768 129.024-55.296 174.080c-36.864 73.728-38.912 94.208-16.384 196.608 28.672 145.408 28.672 161.792-6.144 161.792-18.432 0-38.912-57.344-61.44-167.936-49.152-256-43.008-372.736 28.672-524.288 34.816-71.68 61.44-143.36 61.44-159.744 0-36.864-231.424-40.96-260.096-2.048-14.336 16.384-12.288 71.68 0 161.792 16.384 102.4 30.72 139.264 59.392 145.408 47.104 12.288 49.152 55.296 2.048 55.296-28.672 0-55.296 57.344-116.736 245.76-43.008 135.168-90.112 245.76-102.4 245.76-16.384 0-22.528-88.064-22.528-282.624z" />
<glyph unicode="&#xe91e;" glyph-name="icons8-pullups-50" d="M430.080 929.28c-14.336-16.384-20.48-57.344-16.384-92.16 8.192-59.392 6.144-61.44-69.632-61.44-43.008 0-96.256 12.288-118.784 24.576-30.72 20.48-45.056 20.48-65.536 0-12.288-12.288-55.296-24.576-92.16-24.576-47.104 0-67.584-10.24-67.584-30.72 0-22.528 22.528-30.72 81.92-30.72 73.728 0 83.968-6.144 124.928-83.968 43.008-83.968 53.248-88.064 147.456-49.152 28.672 12.288 34.816 4.096 34.816-53.248 0-38.912-10.24-139.264-22.528-223.232l-24.576-155.648 69.632-106.496c55.296-83.968 79.872-106.496 126.976-106.496 73.728 0 73.728 63.488 4.096 167.936-53.248 77.824-69.632 180.224-28.672 180.224 12.288 0 16.384-22.528 10.24-57.344-8.192-36.864 0-71.68 26.624-106.496l38.912-49.152 43.008 49.152c36.864 40.96 43.008 69.632 32.768 143.36-38.912 333.824-38.912 335.872 2.048 319.488 98.304-40.96 106.496-36.864 149.504 47.104 40.96 77.824 51.2 83.968 124.928 83.968 59.392 0 81.92 8.192 81.92 30.72s-22.528 30.72-79.872 30.72c-45.056 0-83.968 10.24-90.112 26.624-6.144 20.48-18.432 20.48-53.248 0-22.528-14.336-77.824-26.624-120.832-26.624-75.776 0-77.824 2.048-69.632 61.44 10.24 77.824-24.576 122.88-98.304 122.88-30.72 0-67.584-14.336-81.92-30.72z" />
<glyph unicode="&#xe91f;" glyph-name="icons8-pullups-50-2" d="M407.552 916.992c-12.288-24.576-16.384-69.632-10.24-102.4 10.24-55.296 6.144-59.392-47.104-59.392-32.768 0-69.632 14.336-83.968 30.72s-43.008 30.72-65.536 30.72c-20.48 0-43.008-14.336-49.152-30.72-8.192-18.432-38.912-30.72-81.92-30.72-38.912 0-69.632-8.192-69.632-20.48 0-10.24 36.864-20.48 79.872-20.48 77.824 0 81.92-4.096 116.736-94.208 34.816-94.208 36.864-94.208 116.736-83.968l81.92 10.24-14.336-94.208c-38.912-262.144-36.864-296.96 22.528-403.456 40.96-71.68 71.68-104.448 106.496-108.544 61.44-10.24 102.4 38.912 90.112 104.448-6.144 30.72 8.192 61.44 43.008 94.208 61.44 57.344 65.536 96.256 22.528 235.52-16.384 55.296-30.72 122.88-30.72 149.504 0 40.96 6.144 45.056 38.912 26.624 79.872-43.008 118.784-24.576 159.744 71.68 34.816 86.016 40.96 92.16 114.688 92.16 40.96 0 75.776 10.24 75.776 20.48 0 12.288-30.72 20.48-69.632 20.48-43.008 0-73.728 12.288-81.92 30.72-6.144 16.384-28.672 30.72-49.152 30.72-22.528 0-51.2-14.336-65.536-30.72s-51.2-30.72-83.968-30.72c-53.248 0-57.344 4.096-47.104 59.392 20.48 94.208-20.48 145.408-114.688 145.408-61.44 0-86.016-10.24-104.448-43.008zM649.216 673.28c28.672-22.528 65.536-40.96 81.92-40.96s22.528-8.192 16.384-20.48c-8.192-12.288-34.816-8.192-71.68 10.24-32.768 16.384-63.488 30.72-71.68 30.72-20.48 0-10.24-270.336 14.336-350.208 20.48-69.632 18.432-86.016-14.336-120.832-51.2-57.344-79.872-51.2-38.912 10.24 26.624 40.96 28.672 61.44 8.192 122.88-32.768 102.4-86.016 88.064-110.592-26.624-16.384-75.776-12.288-104.448 26.624-182.272 59.392-124.928 40.96-135.168-28.672-16.384-55.296 92.16-55.296 98.304-32.768 235.52 28.672 172.032 28.672 301.056 2.048 317.44-10.24 6.144-47.104-2.048-79.872-20.48-38.912-18.432-65.536-22.528-73.728-10.24-6.144 12.288 4.096 20.48 26.624 20.48 20.48 0 55.296 18.432 75.776 40.96 26.624 28.672 63.488 40.96 126.976 40.96 61.44 0 110.592-14.336 143.36-40.96z" />
<glyph unicode="&#xe920;" glyph-name="icons8-pushups-50" d="M24.576 730.624c-14.336-14.336-24.576-49.152-24.576-77.824s10.24-63.488 24.576-77.824c30.72-30.72 124.928-30.72 155.648 0 18.432 18.432 24.576 12.288 24.576-32.768 0-30.72 10.24-75.776 22.528-98.304 18.432-32.768 14.336-53.248-20.48-100.352-24.576-30.72-43.008-71.68-43.008-90.112 0-22.528-22.528-30.72-81.92-30.72-45.056 0-81.92-8.192-81.92-20.48s184.32-20.48 512-20.48h512v153.6l-352.256 169.984c-194.56 92.16-368.64 167.936-385.024 167.936-18.432 0-43.008-10.24-57.344-24.576-18.432-18.432-24.576-16.384-24.576 16.384 0 55.296-38.912 90.112-102.4 90.112-28.672 0-63.488-10.24-77.824-24.576zM493.568 376.32c61.44-16.384 180.224-57.344 264.192-90.112l153.6-61.44h-321.536c-178.176-2.048-323.584 4.096-323.584 10.24s18.432 34.816 40.96 63.488c22.528 28.672 40.96 75.776 40.96 106.496 0 36.864 6.144 45.056 18.432 26.624 8.192-14.336 65.536-38.912 126.976-55.296z" />
<glyph unicode="&#xe921;" glyph-name="icons8-spinning-50" d="M798.72 896.512c0-10.24-40.96-38.912-92.16-61.44-102.4-45.056-110.592-71.68-69.632-231.424 20.48-86.016 20.48-88.064-63.488-172.032-73.728-73.728-98.304-86.016-172.032-86.016-83.968 0-86.016 2.048-112.64 98.304-14.336 53.248-30.72 112.64-36.864 133.12-8.192 22.528 0 34.816 24.576 34.816 20.48 0 30.72 12.288 26.624 36.864-4.096 26.624-30.72 36.864-104.448 40.96-86.016 6.144-96.256 2.048-96.256-34.816 0-26.624 14.336-43.008 36.864-43.008 24.576 0 45.056-32.768 71.68-124.928 36.864-124.928 36.864-126.976-6.144-155.648-49.152-34.816-55.296-133.12-10.24-169.984 24.576-20.48 22.528-32.768-14.336-83.968-24.576-32.768-57.344-59.392-71.68-59.392s-26.624-8.192-26.624-20.48c0-10.24 36.864-20.48 81.92-20.48 55.296 0 81.92 8.192 79.872 26.624-2.048 12.288 6.144 49.152 20.48 77.824 20.48 43.008 47.104 55.296 145.408 71.68 110.592 18.432 122.88 16.384 163.84-26.624 32.768-34.816 67.584-47.104 131.072-47.104 92.16 0 139.264-28.672 120.832-73.728-8.192-22.528 10.24-28.672 73.728-28.672 92.16 0 108.544 20.48 38.912 51.2-71.68 32.768-92.16 83.968-51.2 129.024 57.344 61.44 47.104 210.944-18.432 278.528-30.72 28.672-75.776 53.248-100.352 53.248-38.912 0-49.152 16.384-69.632 116.736-12.288 63.488-22.528 122.88-22.528 131.072s34.816 28.672 79.872 45.056c71.68 28.672 104.448 67.584 104.448 118.784 0 10.24-14.336 18.432-30.72 18.432s-30.72-10.24-30.72-22.528z" />
<glyph unicode="&#xe922;" glyph-name="icons8-spinning-50-2" d="M798.72 896.512c0-10.24-40.96-38.912-92.16-61.44-102.4-45.056-110.592-71.68-69.632-233.472 22.528-88.064 20.48-88.064-57.344-161.792-65.536-61.44-92.16-73.728-172.032-73.728-92.16 0-94.208 2.048-118.784 83.968-14.336 47.104-30.72 96.256-36.864 112.64-6.144 18.432 4.096 28.672 32.768 28.672 32.768 0 43.008 12.288 43.008 51.2 0 57.344-53.248 79.872-165.888 67.584-59.392-4.096-69.632-14.336-75.776-61.44-6.144-49.152 0-57.344 43.008-57.344 38.912 0 53.248-16.384 73.728-83.968 14.336-47.104 28.672-94.208 34.816-108.544 4.096-12.288-12.288-32.768-36.864-43.008-59.392-26.624-77.824-172.032-28.672-212.992 28.672-22.528 28.672-30.72-2.048-75.776-16.384-26.624-45.056-49.152-59.392-49.152-16.384 0-28.672-8.192-28.672-20.48 0-10.24 36.864-20.48 83.968-20.48 61.44 0 81.92 8.192 73.728 26.624-20.48 55.296 47.104 106.496 176.128 129.024 114.688 22.528 131.072 20.48 169.984-14.336 26.624-24.576 71.68-38.912 122.88-38.912 88.064 0 135.168-28.672 116.736-73.728-8.192-22.528 10.24-28.672 73.728-28.672 92.16 0 108.544 20.48 38.912 51.2-71.68 32.768-92.16 83.968-51.2 129.024 57.344 61.44 47.104 210.944-18.432 278.528-30.72 28.672-75.776 53.248-100.352 53.248-38.912 0-49.152 16.384-69.632 116.736-12.288 63.488-22.528 122.88-22.528 131.072s34.816 28.672 79.872 45.056c71.68 28.672 104.448 67.584 104.448 118.784 0 10.24-14.336 18.432-30.72 18.432s-30.72-10.24-30.72-22.528z" />
<glyph unicode="&#xe923;" glyph-name="icons8-sports-mode-50-2" d="M401.408 914.944c-71.68-100.352-8.192-227.328 110.592-227.328s182.272 126.976 110.592 227.328c-22.528 32.768-51.2 45.056-110.592 45.056s-88.064-12.288-110.592-45.056zM802.816 622.080l-88.064-69.632-112.64 55.296c-124.928 61.44-182.272 49.152-182.272-38.912 0-40.96 24.576-61.44 133.12-114.688 73.728-36.864 147.456-65.536 163.84-65.536 49.152-2.048 274.432 233.472 260.096 272.384-20.48 51.2-77.824 36.864-174.080-38.912zM208.896 230.912c-59.392-131.072-104.448-251.904-98.304-266.24 6.144-16.384 32.768-28.672 59.392-28.672 34.816 0 67.584 28.672 122.88 108.544 71.68 102.4 81.92 110.592 221.184 145.408 227.328 59.392 221.184 122.88-22.528 219.136-83.968 32.768-157.696 59.392-163.84 59.392s-59.392-106.496-118.784-237.568z" />
<glyph unicode="&#xe924;" glyph-name="icons8-squats-50" d="M284.672 556.544c-118.784-262.144-104.448-333.824 65.536-333.824 55.296 0 100.352-4.096 100.352-8.192s-18.432-51.2-40.96-104.448c-51.2-120.832-28.672-180.224 67.584-169.984 57.344 6.144 69.632 20.48 145.408 186.368 94.208 206.848 88.064 245.76-36.864 256-43.008 4.096-73.728 12.288-69.632 20.48s20.48 49.152 36.864 92.16l28.672 75.776h178.176c184.32 0 219.136 16.384 190.464 92.16-10.24 24.576-63.488 30.72-307.2 30.72h-296.96l-61.44-137.216zM880.64 632.32c0-12.288-71.68-20.48-172.032-20.48h-174.080l-51.2-114.688c-28.672-63.488-53.248-122.88-53.248-133.12s34.816-18.432 77.824-18.432c133.12 0 137.216-16.384 53.248-190.464-40.96-86.016-81.92-157.696-92.16-157.696-26.624 0-22.528 26.624 22.528 133.12 22.528 53.248 40.96 104.448 40.96 114.688s-45.056 18.432-100.352 18.432c-118.784 0-165.888 14.336-165.888 51.2 0 47.104 106.496 284.672 141.312 313.344 36.864 30.72 473.088 34.816 473.088 4.096z" />
<glyph unicode="&#xe925;" glyph-name="icons8-stepper-50" d="M278.528 716.288c-18.432-30.72-57.344-290.816-47.104-317.44 6.144-16.384 57.344-40.96 112.64-55.296 98.304-24.576 102.4-28.672 114.688-108.544 10.24-51.2 6.144-86.016-8.192-90.112-10.24-4.096-20.48-20.48-20.48-36.864 0-20.48 24.576-28.672 77.824-28.672 40.96 0 90.112-10.24 106.496-20.48 22.528-14.336 6.144-20.48-61.44-20.48-51.2 0-112.64-6.144-137.216-12.288-45.056-12.288-47.104-8.192-47.104 141.312 0 147.456-2.048 153.6-53.248 165.888-69.632 18.432-73.728 12.288-49.152-71.68 26.624-90.112 26.624-243.712 0-243.712-10.24 0-20.48-10.24-20.48-22.528 0-16.384 67.584-20.48 243.712-8.192 215.040 12.288 243.712 10.24 256-20.48 8.192-22.528 30.72-30.72 77.824-26.624 61.44 6.144 67.584 12.288 67.584 77.824 0 71.68 0 71.68-92.16 71.68-51.2 0-120.832 12.288-155.648 26.624-55.296 24.576-65.536 40.96-86.016 153.6-18.432 96.256-36.864 137.216-77.824 169.984-43.008 36.864-51.2 55.296-40.96 104.448 12.288 53.248 26.624 61.44 114.688 79.872l102.4 22.528v-88.064c0-71.68 12.288-98.304 65.536-149.504 53.248-49.152 65.536-77.824 73.728-174.080 12.288-157.696 45.056-145.408 45.056 18.432 0 120.832-4.096 137.216-61.44 188.416-38.912 34.816-61.44 73.728-61.44 108.544 0 30.72-6.144 83.968-12.288 116.736l-12.288 59.392-202.752 2.048c-112.64 0-206.848-4.096-210.944-12.288z" />
<glyph unicode="&#xe926;" glyph-name="icons8-stepper-50-2" d="M311.296 935.424c-30.72-30.72-32.768-151.552-2.048-169.984 12.288-10.24 8.192-22.528-14.336-38.912-20.48-16.384-43.008-81.92-59.392-174.080-22.528-135.168-20.48-159.744 12.288-249.856 40.96-106.496 53.248-284.672 18.432-284.672-10.24 0-20.48-10.24-20.48-22.528 0-16.384 67.584-20.48 243.712-8.192 215.040 12.288 243.712 10.24 256-20.48 8.192-22.528 30.72-30.72 77.824-26.624 61.44 6.144 67.584 12.288 67.584 77.824 0 71.68 0 71.68-92.16 71.68-51.2 0-120.832 12.288-155.648 26.624-59.392 24.576-67.584 38.912-79.872 141.312-10.24 81.92-28.672 129.024-65.536 165.888-75.776 75.776-51.2 135.168 65.536 161.792l92.16 20.48v-67.584c0-49.152 16.384-83.968 65.536-129.024 53.248-49.152 65.536-77.824 73.728-174.080 12.288-157.696 45.056-145.408 45.056 18.432 0 120.832-4.096 137.216-61.44 188.416-55.296 49.152-61.44 65.536-61.44 176.128v120.832l-137.216-14.336c-137.216-14.336-139.264-14.336-102.4 24.576 40.96 45.056 47.104 149.504 10.24 186.368-14.336 14.336-53.248 24.576-88.064 24.576s-73.728-10.24-88.064-24.576z" />
<glyph unicode="&#xe927;" glyph-name="icons8-sumo-50" d="M409.6 824.832c-16.384-40.96-55.296-86.016-86.016-102.4s-73.728-47.104-94.208-69.632c-36.864-40.96-38.912-40.96-86.016 10.24-79.872 83.968-147.456 51.2-69.632-32.768 30.72-32.768 28.672-34.816-10.24-24.576-30.72 8.192-43.008 2.048-43.008-22.528 0-16.384 22.528-36.864 49.152-45.056 47.104-10.24 47.104-14.336 18.432-71.68-26.624-55.296-26.624-73.728 12.288-200.704 51.2-172.032 51.2-159.744 2.048-172.032-83.968-22.528-40.96-55.296 71.68-55.296h112.64v73.728c0 63.488 4.096 71.68 43.008 59.392 32.768-10.24 45.056-4.096 55.296 34.816l12.288 47.104 12.288-51.2c10.24-45.056 22.528-51.2 102.4-51.2 86.016 0 90.112 2.048 104.448 71.68 10.24 47.104 6.144 75.776-8.192 86.016s-6.144 16.384 22.528 16.384c26.624 0 45.056 12.288 45.056 30.72 0 16.384-16.384 30.72-38.912 30.72-38.912 0-153.6 79.872-137.216 96.256 4.096 6.144 28.672-10.24 51.2-32.768 45.056-45.056 133.12-57.344 155.648-20.48 8.192 12.288-4.096 43.008-28.672 67.584s-43.008 53.248-43.008 61.44c0 8.192 22.528-12.288 51.2-45.056 45.056-55.296 49.152-67.584 26.624-129.024-12.288-38.912-34.816-86.016-51.2-104.448-36.864-40.96-26.624-108.544 14.336-108.544 16.384 0 38.912 18.432 51.2 40.96s43.008 73.728 67.584 112.64c30.72 49.152 45.056 104.448 45.056 176.128 0 96.256-6.144 112.64-71.68 169.984-40.96 34.816-81.92 63.488-92.16 63.488-12.288 0-36.864 36.864-55.296 81.92-32.768 73.728-43.008 81.92-108.544 81.92s-77.824-8.192-102.4-73.728zM860.16 462.336c0-43.008-20.48-102.4-55.296-149.504-32.768-49.152-57.344-118.784-63.488-176.128l-10.24-98.304h116.736c112.64 0 157.696 32.768 73.728 55.296-49.152 12.288-49.152 0 2.048 169.984 36.864 122.88 38.912 149.504 14.336 196.608-40.96 83.968-77.824 86.016-77.824 2.048z" />
<glyph unicode="&#xe928;" glyph-name="icons8-sumo-50-2" d="M411.648 835.072c-14.336-34.816-43.008-67.584-61.44-73.728s-63.488-34.816-100.352-61.44c-63.488-47.104-71.68-49.152-104.448-18.432-71.68 65.536-116.736 20.48-51.2-51.2 30.72-32.768 28.672-34.816-10.24-24.576-49.152 12.288-61.44-43.008-14.336-61.44 26.624-10.24 26.624-20.48 0-73.728-28.672-57.344-28.672-73.728 0-176.128 18.432-61.44 38.912-124.928 45.056-139.264 6.144-18.432-6.144-32.768-30.72-40.96-26.624-6.144-43.008-26.624-43.008-53.248 0-38.912 12.288-43.008 133.12-43.008 126.976 0 133.12 2.048 133.12 49.152 0 57.344 47.104 73.728 215.040 73.728 188.416-2.048 194.56-4.096 194.56-65.536 0-57.344 2.048-57.344 133.12-57.344 120.832 0 133.12 4.096 133.12 43.008 0 26.624-16.384 47.104-43.008 53.248-24.576 8.192-36.864 22.528-30.72 40.96 6.144 14.336 26.624 77.824 45.056 139.264 28.672 102.4 28.672 118.784 0 176.128-26.624 53.248-26.624 63.488 0 73.728 47.104 18.432 34.816 73.728-14.336 61.44-38.912-10.24-40.96-8.192-10.24 24.576 73.728 79.872 16.384 114.688-63.488 38.912-26.624-24.576-47.104-32.768-47.104-20.48s-40.96 47.104-90.112 75.776c-51.2 30.72-104.448 79.872-118.784 114.688-22.528 49.152-38.912 59.392-98.304 59.392-61.44 0-75.776-10.24-100.352-63.488zM419.84 648.704c16.384-36.864 36.864-47.104 92.16-47.104s75.776 10.24 92.16 47.104c24.576 53.248 47.104 57.344 108.544 12.288 55.296-38.912 106.496-133.12 106.496-198.656 0-26.624-28.672-94.208-65.536-149.504-81.92-126.976-75.776-118.784-90.112-106.496-6.144 8.192 2.048 34.816 18.432 61.44 16.384 24.576 40.96 81.92 55.296 124.928 22.528 71.68 20.48 81.92-16.384 118.784-24.576 20.48-51.2 55.296-63.488 73.728-16.384 28.672-24.576 30.72-45.056 12.288-20.48-20.48-18.432-38.912 18.432-88.064 55.296-73.728 55.296-81.92 6.144-81.92-22.528 0-57.344 24.576-79.872 55.296l-40.96 57.344-53.248-57.344c-28.672-30.72-65.536-55.296-83.968-55.296-38.912 0-38.912 18.432 0 69.632 32.768 43.008 40.96 114.688 16.384 114.688-10.24 0-43.008-32.768-75.776-73.728-55.296-69.632-57.344-77.824-32.768-163.84 14.336-49.152 38.912-100.352 53.248-112.64 32.768-26.624 38.912-59.392 12.288-59.392-22.528 0-141.312 184.32-147.456 225.28-12.288 81.92 6.144 133.12 69.632 196.608 81.92 81.92 116.736 88.064 145.408 24.576z" />
<glyph unicode="&#xe929;" glyph-name="icons8-torso-50" d="M0 916.992c0-51.2 32.768-116.736 88.064-178.176 38.912-40.96 43.008-71.68 45.056-286.72 0-131.072-4.096-290.816-10.24-352.256-8.192-90.112-4.096-112.64 20.48-118.784 26.624-4.096 36.864 34.816 55.296 215.040 14.336 120.832 18.432 264.192 12.288 317.44l-10.24 96.256 116.736 6.144c110.592 6.144 120.832 10.24 139.264 63.488 24.576 75.776 14.336 83.968-83.968 53.248-114.688-32.768-223.232 20.48-280.576 139.264-43.008 92.16-92.16 116.736-92.16 45.056zM940.032 880.128c-55.296-131.072-176.128-182.272-329.728-137.216-81.92 24.576-77.824-45.056 4.096-75.776 34.816-12.288 61.44-30.72 61.44-38.912s22.528-16.384 49.152-16.384c47.104 0 47.104-4.096 36.864-139.264-4.096-75.776 2.048-200.704 14.336-280.576 14.336-96.256 14.336-149.504 0-163.84-12.288-12.288-131.072-20.48-286.72-20.48-196.608 2.048-264.192-4.096-264.192-22.528 0-38.912 163.84-55.296 399.36-45.056 249.856 14.336 303.104 34.816 282.624 114.688-8.192 30.72-16.384 186.368-16.384 346.112 0 266.24 4.096 292.864 43.008 337.92 57.344 61.44 90.112 126.976 90.112 178.176 0 69.632-49.152 49.152-83.968-36.864z" />
<glyph unicode="&#xe92a;" glyph-name="icons8-track-and-field-50" d="M552.96 863.744c-65.536-26.624-86.016-133.12-30.72-165.888 20.48-10.24-12.288-14.336-86.016-8.192-112.64 8.192-122.88 4.096-186.368-63.488-47.104-47.104-67.584-86.016-61.44-118.784 10.24-69.632 45.056-69.632 124.928 0 38.912 34.816 75.776 57.344 81.92 51.2 12.288-12.288-30.72-149.504-69.632-227.328-18.432-34.816-45.056-47.104-118.784-51.2-81.92-6.144-94.208-12.288-100.352-55.296-10.24-63.488 24.576-83.968 153.6-83.968 96.256 0 110.592 6.144 165.888 73.728l61.44 73.728 192.512-6.144 190.464-8.192v51.2c0 40.96-14.336 55.296-81.92 73.728-45.056 14.336-112.64 26.624-147.456 26.624-53.248 2.048-67.584 10.24-67.584 43.008 0 40.96 2.048 40.96 63.488 10.24 61.44-32.768 65.536-30.72 143.36 18.432 81.92 55.296 106.496 126.976 49.152 147.456-16.384 8.192-53.248-2.048-81.92-20.48-47.104-30.72-55.296-30.72-114.688 0l-65.536 32.768 49.152 24.576c63.488 30.72 77.824 131.072 26.624 169.984-38.912 28.672-43.008 28.672-90.112 12.288z" />
<glyph unicode="&#xe92b;" glyph-name="icons8-treadmill-50" d="M270.336 728.576c-73.728-22.528-159.744-155.648-139.264-210.944 20.48-51.2 88.064-32.768 114.688 30.72 30.72 75.776 92.16 106.496 75.776 38.912-6.144-26.624-18.432-71.68-24.576-100.352-10.24-43.008 0-63.488 59.392-116.736l71.68-63.488-30.72-88.064c-16.384-47.104-24.576-98.304-20.48-112.64 8.192-20.48-24.576-26.624-137.216-26.624-206.848 0-239.616-12.288-239.616-83.968v-59.392h727.040v163.84h-120.832c-104.448 0-116.736 4.096-104.448 34.816 6.144 20.48 22.528 75.776 36.864 122.88 20.48 79.872 18.432 92.16-24.576 135.168-34.816 38.912-40.96 63.488-30.72 104.448s20.48 49.152 34.816 34.816c12.288-12.288 71.68-22.528 131.072-22.528 94.208 0 108.544 6.144 108.544 40.96 0 32.768-14.336 40.96-69.632 40.96-57.344 0-77.824 12.288-122.88 81.92-49.152 75.776-61.44 81.92-141.312 79.872-47.104-2.048-116.736-12.288-153.6-24.576zM905.216 564.736c-94.208-96.256-106.496-126.976-47.104-110.592 24.576 6.144 36.864 0 32.768-14.336-4.096-12.288-22.528-92.16-40.96-178.176-26.624-124.928-40.96-159.744-73.728-167.936s-40.96-24.576-34.816-79.872c6.144-61.44 12.288-67.584 77.824-67.584h71.68l4.096 122.88c2.048 139.264 73.728 475.136 106.496 507.904 26.624 26.624 30.72 75.776 6.144 75.776-8.192 0-55.296-38.912-102.4-88.064z" />
<glyph unicode="&#xe92c;" glyph-name="icons8-triceps-50" d="M57.344 814.592l-63.488-61.44 12.288-198.656c12.288-237.568 53.248-364.544 149.504-462.848l71.68-73.728h206.848c245.76 0 311.296 28.672 387.072 174.080 26.624 51.2 65.536 98.304 83.968 104.448 69.632 22.528 118.784 110.592 118.784 217.088 0 83.968-10.24 110.592-59.392 161.792-51.2 51.2-75.776 59.392-165.888 59.392s-114.688-8.192-165.888-59.392c-32.768-32.768-59.392-79.872-59.392-102.4 0-36.864-12.288-43.008-77.824-43.008-51.2 0-94.208-14.336-126.976-45.056l-47.104-45.056-49.152 61.44c-88.064 106.496-96.256 131.072-40.96 131.072 106.496 0 153.6 137.216 71.68 206.848-73.728 59.392-172.032 49.152-245.76-24.576z" />
<glyph unicode="&#xe92d;" glyph-name="icons8-triceps-50-2" d="M57.344 814.592l-63.488-61.44 12.288-198.656c12.288-237.568 53.248-364.544 149.504-462.848l71.68-73.728h206.848c245.76 0 311.296 28.672 387.072 174.080 26.624 51.2 65.536 98.304 83.968 104.448 69.632 22.528 118.784 110.592 118.784 217.088 0 83.968-10.24 110.592-59.392 161.792-51.2 51.2-75.776 59.392-165.888 59.392s-114.688-8.192-165.888-59.392c-32.768-32.768-59.392-79.872-59.392-102.4 0-36.864-12.288-43.008-79.872-43.008-61.44 0-90.112-12.288-120.832-51.2l-40.96-51.2-75.776 98.304c-73.728 94.208-73.728 96.256-26.624 102.4 114.688 18.432 153.6 126.976 71.68 204.8-69.632 65.536-167.936 59.392-243.712-18.432zM258.048 787.968c32.768-24.576 34.816-34.816 12.288-57.344-14.336-14.336-51.2-26.624-81.92-26.624-47.104 0-55.296-10.24-61.44-61.44-4.096-47.104 16.384-88.064 88.064-174.080 51.2-61.44 92.16-124.928 92.16-139.264 0-51.2 69.632-14.336 83.968 45.056 20.48 75.776 49.152 94.208 145.408 94.208 67.584 0 77.824 8.192 90.112 57.344 22.528 90.112 88.064 147.456 169.984 147.456 208.896 0 227.328-286.72 20.48-337.92-30.72-8.192-79.872-40.96-110.592-71.68-43.008-45.056-83.968-63.488-167.936-73.728-71.68-8.192-131.072-30.72-169.984-61.44-71.68-61.44-104.448-61.44-159.744-2.048-79.872 83.968-131.072 235.52-143.36 417.792-8.192 157.696-6.144 174.080 36.864 221.184 55.296 57.344 98.304 63.488 155.648 22.528z" />
<glyph unicode="&#xe92e;" glyph-name="icons8-water-park-50" d="M737.28 939.52c0-10.24 32.768-32.768 71.68-49.152 96.256-40.96 131.072-114.688 86.016-184.32-18.432-26.624-51.2-55.296-73.728-63.488-28.672-8.192-40.96-34.816-47.104-98.304-6.144-47.104-8.192-88.064-6.144-92.16 4.096-4.096 43.008 10.24 90.112 28.672 114.688 45.056 165.888 122.88 165.888 247.808 0 104.448-32.768 153.6-137.216 208.896-55.296 28.672-149.504 30.72-149.504 2.048zM79.872 851.456c-59.392-38.912-69.632-59.392-75.776-139.264-8.192-112.64 43.008-188.416 149.504-223.232 61.44-20.48 81.92-18.432 139.264 18.432 36.864 22.528 86.016 59.392 106.496 83.968 36.864 40.96 36.864 40.96-47.104 40.96-104.448 0-186.368 30.72-202.752 73.728-18.432 49.152 47.104 90.112 145.408 90.112 104.448 0 184.32-38.912 192.512-94.208 8.192-61.44-153.6-202.752-335.872-288.768-135.168-63.488-151.552-77.824-151.552-129.024 0-30.72 18.432-79.872 43.008-110.592l40.96-53.248h-40.96c-24.576 0-43.008-12.288-43.008-30.72 0-20.48 22.528-30.72 71.68-30.72 38.912 0 71.68 6.144 71.68 16.384 0 8.192 34.816 12.288 79.872 8.192 100.352-10.24 206.848 43.008 356.352 178.176 131.072 122.88 178.176 208.896 178.176 337.92 0 184.32-176.128 299.008-460.8 299.008-118.784 0-159.744-8.192-217.088-47.104zM77.824 1.536c-49.152-4.096-77.824-16.384-77.824-34.816 0-22.528 96.256-26.624 512-26.624 423.936 0 512 6.144 512 28.672 0 16.384-22.528 28.672-55.296 30.72-157.696 6.144-825.344 8.192-890.88 2.048z" />
<glyph unicode="&#xe92f;" glyph-name="icons8-weight-50" d="M282.624 919.040c-63.488-49.152-75.776-108.544-57.344-239.616 12.288-69.632 8.192-106.496-10.24-129.024-137.216-161.792-116.736-446.464 43.008-571.392 49.152-38.912 81.92-43.008 348.16-43.008 247.808 0 294.912 4.096 294.912 30.72 0 18.432-18.432 30.72-49.152 30.72h-51.2l49.152 86.016c77.824 137.216 59.392 352.256-38.912 466.944-20.48 22.528-24.576 61.44-14.336 137.216 16.384 122.88-12.288 215.040-77.824 249.856-22.528 12.288-118.784 22.528-212.992 22.528-141.312 0-182.272-8.192-223.232-40.96zM694.272 865.792c45.056-32.768 47.104-43.008 34.816-174.080-14.336-126.976-10.24-145.408 36.864-217.088 73.728-110.592 86.016-194.56 45.056-303.104-55.296-141.312-110.592-174.080-299.008-174.080s-243.712 32.768-296.96 174.080c-43.008 108.544-30.72 200.704 43.008 307.2 47.104 69.632 49.152 88.064 36.864 215.040-12.288 129.024-10.24 139.264 34.816 172.032 32.768 22.528 90.112 32.768 182.272 32.768s149.504-10.24 182.272-32.768zM354.304 843.264c-28.672-10.24-34.816-86.016-14.336-184.32l12.288-59.392h319.488l12.288 59.392c20.48 104.448 14.336 174.080-20.48 186.368-36.864 14.336-272.384 14.336-309.248-2.048z" />
<glyph unicode="&#xe930;" glyph-name="icons8-weight-50-2" d="M253.952 804.352c-30.72-45.056-32.768-65.536-10.24-151.552 24.576-94.208 22.528-104.448-26.624-190.464-65.536-110.592-69.632-229.376-12.288-342.016l40.96-81.92h532.48l40.96 81.92c57.344 112.64 53.248 231.424-12.288 342.016-49.152 86.016-51.2 96.256-26.624 190.464 22.528 86.016 20.48 106.496-10.24 151.552-32.768 51.2-38.912 53.248-258.048 53.248s-225.28-2.048-258.048-53.248z" />
<glyph unicode="&#xe931;" glyph-name="icons8-workout-50" d="M276.48 708.096c-16.384-26.624-61.44-57.344-100.352-71.68-59.392-22.528-71.68-34.816-69.632-86.016 2.048-36.864 12.288-61.44 30.72-61.44 20.48 0 26.624-40.96 26.624-174.080 0-159.744 4.096-174.080 40.96-174.080 38.912 0 40.96 14.336 40.96 204.8 0 194.56 2.048 204.8 47.104 212.992 24.576 6.144 69.632 14.336 98.304 20.48 43.008 10.24 59.392 0 81.92-45.056 45.056-90.112 45.056-92.16 20.48-77.824-34.816 22.528-102.4-6.144-126.976-53.248-18.432-34.816-10.24-53.248 63.488-124.928 47.104-47.104 75.776-88.064 63.488-92.16-38.912-12.288-24.576-45.056 18.432-45.056 22.528 0 40.96 12.288 40.96 26.624s18.432 43.008 43.008 63.488c28.672 22.528 38.912 51.2 30.72 79.872-6.144 22.528 0 55.296 12.288 69.632s16.384 49.152 12.288 77.824c-8.192 38.912-2.048 51.2 24.576 51.2 28.672 0 36.864-24.576 47.104-129.024 6.144-69.632 18.432-143.36 24.576-163.84 12.288-26.624 4.096-34.816-28.672-34.816-24.576 0-43.008-8.192-43.008-18.432 0-30.72 200.704-24.576 210.944 6.144 6.144 16.384 2.048 67.584-8.192 116.736-14.336 61.44-14.336 116.736 0 176.128 34.816 131.072 28.672 206.848-16.384 231.424-53.248 26.624-364.544 26.624-380.928-2.048-10.24-14.336-28.672-6.144-53.248 20.48-53.248 55.296-112.64 55.296-151.552-4.096zM839.68 642.56c18.432-22.528 20.48-51.2 0-133.12-14.336-63.488-18.432-149.504-10.24-215.040s6.144-112.64-6.144-112.64c-22.528 0-65.536 198.656-65.536 301.056 0 67.584-2.048 67.584-92.16 67.584-94.208 0-108.544-14.336-71.68-79.872 14.336-28.672 4.096-49.152-47.104-96.256-55.296-49.152-57.344-51.2-18.432-6.144 55.296 63.488 55.296 96.256 4.096 161.792-40.96 51.2-51.2 104.448-26.624 129.024 6.144 8.192 79.872 14.336 159.744 14.336 106.496 0 155.648-8.192 174.080-30.72z" />
</font>
</defs>
</svg>
